<?xml version="1.0" encoding="utf-8"?>
<!DOCTYPE svg PUBLIC "-//W3C//DTD SVG 1.1//EN" "http://www.w3.org/Graphics/SVG/1.1/DTD/svg11.dtd" [
	<!ENTITY ns_svg "http://www.w3.org/2000/svg">
	<!ENTITY ns_xlink "http://www.w3.org/1999/xlink">
]>
<svg  version="1.1" id="Слой_1" xmlns="&ns_svg;" xmlns:xlink="&ns_xlink;" width="255" height="254"
	 viewBox="-0.783 -0.146 255 254" overflow="visible" enable-background="new -0.783 -0.146 255 254" xml:space="preserve">
<g>
	<g>
		<path fill-rule="evenodd" clip-rule="evenodd" fill="#FFFFFF" d="M123.067,1.004c2.1,0,4.2,0,6.299,0
			c38.009,1.824,65.586,16.935,85.75,37.1c20.111,20.111,35.175,47.602,37.101,85.4c0,2.333,0,4.666,0,7
			c-1.689,35.092-15.063,61.125-32.55,80.85c-17.52,19.762-42.099,34.439-73.5,39.9c0-29.283,0-58.566,0-87.851
			c8.879,0.588,20.169,0.575,29.05,0c2.126-11.757,3.914-23.852,5.6-36.05c-10.851-0.816-23.217-0.117-34.649-0.35
			c1.082-12.58-2.288-26.114,2.1-34.3c5.401-10.079,18.331-8.981,33.95-8.75c0.813-9.687,0.119-20.88,0.35-31.15
			c-24.454-5.542-49.188-3.394-62.65,9.8c-13.849,13.574-14.955,35.994-13.65,64.4c-10.617,0-21.233,0-31.85,0
			c0,12.133,0,24.267,0,36.399c9.687,0.58,21.814,0.586,31.5,0c0.817,28.584,0.117,58.684,0.35,87.851
			c-31.402-5.461-55.981-20.139-73.5-39.9c-17.486-19.725-30.861-45.758-32.55-80.85c0-2.334,0-4.667,0-7
			c0.272-0.077,0.407-0.293,0.35-0.7c1.522-38.028,17.081-65.031,37.1-85.05C57.717,17.704,85.343,2.864,123.067,1.004z"/>
	</g>
</g>
</svg>
