<?xml version="1.0" encoding="utf-8"?>
<!DOCTYPE svg PUBLIC "-//W3C//DTD SVG 1.1//EN" "http://www.w3.org/Graphics/SVG/1.1/DTD/svg11.dtd" [
	<!ENTITY ns_svg "http://www.w3.org/2000/svg">
	<!ENTITY ns_xlink "http://www.w3.org/1999/xlink">
]>
<svg  version="1.1" id="Слой_1" xmlns="&ns_svg;" xmlns:xlink="&ns_xlink;" width="255" height="254"
	 viewBox="-0.783 -0.146 255 254" overflow="visible" enable-background="new -0.783 -0.146 255 254" xml:space="preserve">
<path fill="#FFFFFF" d="M125.822,0.25C55.751,0.25-1.053,57.054-1.053,127.125v0.062C-1.053,197.224,55.724,254,125.761,254h0.123
	c70.037,0,126.813-56.776,126.813-126.813v-0.062C252.697,57.054,195.895,0.25,125.822,0.25z M196.959,156.634
	c-0.348,7.616-1.558,12.818-3.325,17.372c-1.831,4.705-4.278,8.696-8.257,12.675c-3.977,3.978-7.969,6.426-12.676,8.254
	c-4.553,1.77-9.753,2.979-17.372,3.327c-7.633,0.347-10.068,0.431-29.506,0.431s-21.874-0.082-29.506-0.431
	c-7.619-0.348-12.819-1.558-17.373-3.327c-4.707-1.828-8.698-4.276-12.676-8.254c-3.978-3.979-6.425-7.97-8.255-12.675
	c-1.768-4.554-2.978-9.756-3.326-17.372c-0.348-7.636-0.432-10.072-0.432-29.508c0-19.437,0.083-21.873,0.432-29.508
	c0.348-7.616,1.558-12.819,3.326-17.372c1.83-4.706,4.278-8.696,8.255-12.675c3.979-3.979,7.97-6.426,12.676-8.254
	c4.553-1.769,9.754-2.98,17.373-3.326c7.633-0.349,10.069-0.431,29.506-0.431s21.873,0.083,29.506,0.431
	c7.619,0.346,12.819,1.558,17.372,3.326c4.707,1.829,8.699,4.276,12.676,8.254c3.979,3.979,6.426,7.97,8.257,12.675
	c1.768,4.553,2.978,9.756,3.325,17.372c0.349,7.635,0.43,10.072,0.43,29.508S197.308,148.999,196.959,156.634z"/>
<path fill="#FFFFFF" d="M125.822,94.05c-18.267,0-33.076,14.809-33.076,33.076c0,18.268,14.809,33.076,33.076,33.076
	c18.268,0,33.075-14.808,33.075-33.076C158.899,108.858,144.091,94.05,125.822,94.05z"/>
<path fill="#FFFFFF" d="M175.19,88.923c0,6.166-4.996,11.166-11.165,11.166c-6.166,0-11.165-5-11.165-11.166
	s4.999-11.165,11.165-11.165C170.19,77.758,175.19,82.757,175.19,88.923"/>
</svg>
