<?xml version="1.0" encoding="utf-8"?>
<!DOCTYPE svg PUBLIC "-//W3C//DTD SVG 1.1//EN" "http://www.w3.org/Graphics/SVG/1.1/DTD/svg11.dtd" [
	<!ENTITY ns_svg "http://www.w3.org/2000/svg">
	<!ENTITY ns_xlink "http://www.w3.org/1999/xlink">
]>
<svg  version="1.1" id="Слой_1" xmlns="&ns_svg;" xmlns:xlink="&ns_xlink;" width="117.371" height="117.371"
	 viewBox="0 0 117.371 117.371" overflow="visible" enable-background="new 0 0 117.371 117.371" xml:space="preserve">
<path fill="#FFFFFF" d="M58.703,28.829c-16.521,0-29.847,13.326-29.847,29.847c0,16.521,13.326,29.848,29.847,29.848
	c16.521,0,29.848-13.325,29.848-29.848C88.55,42.155,75.225,28.829,58.703,28.829z M58.703,78.08
	c-10.676,0-19.404-8.702-19.404-19.404c0-10.702,8.701-19.405,19.404-19.405s19.404,8.702,19.404,19.404
	C78.107,69.377,69.379,78.08,58.703,78.08z M96.732,27.608c0,3.871-3.116,6.961-6.961,6.961c-3.871,0-6.963-3.117-6.963-6.961
	c0-3.845,3.117-6.962,6.963-6.962C93.616,20.646,96.732,23.763,96.732,27.608z M116.5,34.673c-0.441-9.326-2.57-17.586-9.402-24.392
	c-6.807-6.806-15.066-8.937-24.393-9.403c-9.611-0.545-38.42-0.545-48.031,0c-9.299,0.441-17.56,2.572-24.392,9.377
	C3.45,17.061,1.346,25.321,0.878,34.647c-0.545,9.611-0.545,38.419,0,48.03c0.442,9.326,2.572,17.587,9.404,24.394
	c6.832,6.806,15.066,8.936,24.392,9.402c9.611,0.547,38.42,0.547,48.031,0c9.324-0.44,17.586-2.57,24.393-9.402
	c6.805-6.807,8.936-15.066,9.402-24.394C117.046,73.066,117.046,44.285,116.5,34.673z M104.083,92.991
	c-2.024,5.091-5.948,9.014-11.065,11.065c-7.662,3.039-25.847,2.338-34.314,2.338c-8.468,0-26.678,0.676-34.315-2.338
	c-5.091-2.027-9.014-5.949-11.066-11.065c-3.039-7.663-2.338-25.847-2.338-34.315c0-8.468-0.675-26.678,2.338-34.315
	c2.026-5.091,5.949-9.014,11.066-11.066c7.663-3.04,25.847-2.338,34.315-2.338c8.469,0,26.678-0.676,34.314,2.338
	c5.092,2.026,9.015,5.948,11.065,11.066c3.04,7.663,2.338,25.847,2.338,34.315C106.421,67.145,107.124,85.354,104.083,92.991z"/>
</svg>
