<?xml version="1.0" encoding="utf-8"?>
<!DOCTYPE svg PUBLIC "-//W3C//DTD SVG 1.1//EN" "http://www.w3.org/Graphics/SVG/1.1/DTD/svg11.dtd" [
	<!ENTITY ns_svg "http://www.w3.org/2000/svg">
	<!ENTITY ns_xlink "http://www.w3.org/1999/xlink">
]>
<svg  version="1.1" id="Слой_1" xmlns="&ns_svg;" xmlns:xlink="&ns_xlink;" width="255" height="254"
	 viewBox="-0.783 -0.146 255 254" overflow="visible" enable-background="new -0.783 -0.146 255 254" xml:space="preserve">
<path fill="#FFFFFF" d="M126.592,0.085C56.521,0.085-0.283,56.888-0.283,126.96c0,70.037,56.776,126.813,126.813,126.813h0.124
	c70.038,0,126.813-56.776,126.813-126.813C253.467,56.888,196.662,0.085,126.592,0.085z M126.092,52.416
	c21.644,0,39.237,17.6,39.237,39.24c0,21.631-17.594,39.226-39.237,39.226c-21.638,0-39.236-17.594-39.236-39.226
	C86.856,70.016,104.454,52.416,126.092,52.416z M163.905,184.822c4.492,4.486,4.492,11.769,0,16.258
	c-4.49,4.489-11.767,4.489-16.251,0l-21.566-21.558l-21.545,21.558c-2.247,2.242-5.191,3.364-8.135,3.364
	c-2.939,0-5.878-1.122-8.125-3.364c-4.489-4.489-4.489-11.769-0.005-16.258l21.937-21.933c-7.987-1.821-15.692-4.984-22.785-9.437
	c-5.369-3.384-6.982-10.479-3.6-15.852c3.375-5.381,10.468-7,15.847-3.615c16.063,10.102,36.756,10.108,52.828,0
	c5.378-3.385,12.472-1.766,15.851,3.615c3.385,5.368,1.767,12.468-3.603,15.852c-7.096,4.457-14.798,7.615-22.786,9.437
	L163.905,184.822z M126.092,107.896c8.961,0,16.246-7.29,16.246-16.24c0-8.959-7.285-16.247-16.246-16.247
	c-8.949,0-16.246,7.288-16.246,16.247C109.846,100.606,117.143,107.896,126.092,107.896z"/>
</svg>
