<?xml version="1.0" encoding="utf-8"?>
<!DOCTYPE svg PUBLIC "-//W3C//DTD SVG 1.1//EN" "http://www.w3.org/Graphics/SVG/1.1/DTD/svg11.dtd" [
	<!ENTITY ns_svg "http://www.w3.org/2000/svg">
	<!ENTITY ns_xlink "http://www.w3.org/1999/xlink">
]>
<svg  version="1.1" id="Слой_1" xmlns="&ns_svg;" xmlns:xlink="&ns_xlink;" width="23.992" height="23.992"
	 viewBox="0 0 23.992 23.992" overflow="visible" enable-background="new 0 0 23.992 23.992" xml:space="preserve">
<path fill="#FFFFFF" d="M15.678,0H8.313C1.591,0,0,1.591,0,8.313v7.365c0,6.722,1.591,8.313,8.313,8.313h7.365
	c6.722,0,8.313-1.592,8.313-8.313V8.313C23.992,1.591,22.382,0,15.678,0z M19.369,17.117h-1.744c-0.66,0-0.863-0.524-2.048-1.727
	c-1.032-0.999-1.49-1.135-1.744-1.135c-0.355,0-0.457,0.102-0.457,0.594v1.574c0,0.423-0.136,0.677-1.253,0.677
	c-1.846,0-3.894-1.117-5.333-3.2c-2.167-3.047-2.76-5.333-2.76-5.807c0-0.254,0.102-0.491,0.593-0.491h1.744
	c0.44,0,0.609,0.203,0.779,0.677c0.863,2.489,2.302,4.673,2.895,4.673c0.22,0,0.322-0.102,0.322-0.66V9.718
	c-0.068-1.185-0.694-1.287-0.694-1.71c0-0.203,0.169-0.406,0.44-0.406h2.743c0.372,0,0.508,0.203,0.508,0.644v3.471
	c0,0.373,0.169,0.508,0.271,0.508c0.22,0,0.406-0.135,0.813-0.542c1.252-1.405,2.149-3.572,2.149-3.572
	c0.118-0.254,0.321-0.491,0.763-0.491h1.743c0.524,0,0.644,0.271,0.524,0.644c-0.22,1.016-2.354,4.03-2.354,4.03
	c-0.186,0.305-0.254,0.439,0,0.778c0.188,0.254,0.797,0.778,1.203,1.253c0.744,0.847,1.32,1.558,1.473,2.049
	C20.115,16.863,19.861,17.117,19.369,17.117z"/>
</svg>
