<?xml version="1.0" encoding="utf-8"?>
<!DOCTYPE svg PUBLIC "-//W3C//DTD SVG 1.1//EN" "http://www.w3.org/Graphics/SVG/1.1/DTD/svg11.dtd" [
	<!ENTITY ns_svg "http://www.w3.org/2000/svg">
	<!ENTITY ns_xlink "http://www.w3.org/1999/xlink">
]>
<svg  version="1.1" id="Слой_1" xmlns="&ns_svg;" xmlns:xlink="&ns_xlink;" width="255" height="254"
	 viewBox="-0.783 -0.146 255 254" overflow="visible" enable-background="new -0.783 -0.146 255 254" xml:space="preserve">
<path fill="#FFFFFF" d="M126.072-0.343C56.001-0.343-0.803,56.46-0.803,126.532v0.062c0,70.038,56.776,126.813,126.813,126.813
	h0.125c70.036,0,126.813-56.775,126.813-126.813v-0.062C252.947,56.46,196.145-0.343,126.072-0.343z M201.431,164.007
	c-1.882,8.182-8.574,14.215-16.629,15.112c-19.073,2.132-38.382,2.144-57.603,2.132c-19.224,0.013-38.532,0-57.605-2.13
	c-8.057-0.899-14.746-6.934-16.626-15.114c-2.676-11.655-2.676-24.369-2.676-36.366c0-11.999,0.029-24.714,2.708-36.366
	c1.881-8.182,8.57-14.215,16.624-15.114c19.074-2.13,38.383-2.14,57.606-2.13c19.224-0.01,38.528,0,57.604,2.13
	c8.052,0.899,14.744,6.933,16.628,15.114c2.676,11.652,2.663,24.367,2.663,36.366C204.125,139.638,204.111,152.352,201.431,164.007z
	 M111.073,148.612l40.671-21.329l-40.671-21.324V148.612z"/>
</svg>
