<svg xmlns="http://www.w3.org/2000/svg" viewBox="0 0 45.71 62.76" width="45.71" height="62.76"><defs><style>.cls-1{fill:#cff;}.cls-1,.cls-4{stroke:#09b7ae;stroke-width:1px;}.cls-1,.cls-4,.cls-5{stroke-miterlimit:10;}.cls-2{fill:#09b7ae;}.cls-3{fill:#fff;}.cls-4{fill:none;}.cls-5{font-size:13.6px;fill:#cc0909;stroke:#cc0909;stroke-width:0.5px;font-family:OpenSans, Open Sans;letter-spacing:0.07em;}</style></defs><title>doc</title><g id="Слой_2" data-name="Слой 2"><g id="Слой_1-2" data-name="Слой 1"><path class="cls-1" d="M22.35.5H2.71A2.22,2.22,0,0,0,.5,2.73V60a2.22,2.22,0,0,0,2.2,2.22H43A2.22,2.22,0,0,0,45.21,60V14.32l0-6.34c.27-4.45-2.71-1.77-6.07.77-5.05,3.8-7.34-1.32-9.62-4.58A8.75,8.75,0,0,0,22.35.5Z"/><path class="cls-2" d="M24.23.26,44.31,5.17a11.42,11.42,0,0,0-3.46,2.36c-1.47,1.55-5.53,3.82-7.58,1.76s-4.42-6.94-6.4-7.79A26.21,26.21,0,0,1,24.23.26Z"/><rect class="cls-3" x="0.91" y="20.82" width="43.74" height="22.31"/><line class="cls-4" x1="0.94" y1="20.73" x2="45.21" y2="20.73"/><line class="cls-4" x1="0.94" y1="43.51" x2="45.21" y2="43.51"/><text class="cls-5" transform="translate(6.73 37.1)">DOC</text></g></g></svg>
