<svg xmlns="http://www.w3.org/2000/svg" width="46" height="63" viewBox="0 0 45.73 62.72"><defs><style>.cls-1{fill:#cff;}.cls-1,.cls-4{stroke:#09b7ae;stroke-miterlimit:10;}.cls-2{fill:#09b7ae;}.cls-3{fill:#fff;}.cls-4{fill:none;}.cls-5{fill:#cc0909;}</style></defs><title>doc</title><g id="Слой_2" data-name="Слой 2"><g id="Слой_1-2" data-name="Слой 1"><path class="cls-1" d="M22.35.5H2.71A2.22,2.22,0,0,0,.5,2.73h0V60a2.22,2.22,0,0,0,2.2,2.22H43A2.22,2.22,0,0,0,45.21,60V8c.27-4.45-2.71-1.77-6.07.77-5,3.8-7.34-1.32-9.62-4.58A8.75,8.75,0,0,0,22.35.5Z"/><path class="cls-2" d="M24.23.26,44.31,5.17a11.42,11.42,0,0,0-3.46,2.36c-1.47,1.55-5.53,3.82-7.58,1.76s-4.42-6.94-6.4-7.79A26.21,26.21,0,0,1,24.23.26Z"/><rect class="cls-3" x="0.91" y="20.82" width="43.74" height="22.31"/><line class="cls-4" x1="0.94" y1="20.73" x2="45.21" y2="20.73"/><path class="cls-5" d="M11,27.14H7.81V37.35h2.94A5.42,5.42,0,0,0,14.68,36a5.16,5.16,0,0,0,1.38-3.85,5,5,0,0,0-1.33-3.68A5,5,0,0,0,11,27.14ZM13.43,35a4,4,0,0,1-2.86.92H9.44V28.62h1.39a3.6,3.6,0,0,1,2.65.89,3.69,3.69,0,0,1,.88,2.69A3.71,3.71,0,0,1,13.43,35Z"/><path class="cls-5" d="M22.92,27a4.48,4.48,0,0,0-3.51,1.39,5.58,5.58,0,0,0-1.23,3.84,5.65,5.65,0,0,0,1.23,3.87,4.45,4.45,0,0,0,3.5,1.4,4.4,4.4,0,0,0,3.47-1.42,5.61,5.61,0,0,0,1.24-3.83,5.6,5.6,0,0,0-1.24-3.83A4.39,4.39,0,0,0,22.92,27Zm2.23,8.08A2.7,2.7,0,0,1,22.9,36a2.72,2.72,0,0,1-2.25-.93,4.39,4.39,0,0,1-.78-2.83,4.35,4.35,0,0,1,.78-2.81,2.74,2.74,0,0,1,2.26-.93,2.68,2.68,0,0,1,2.23.92,4.42,4.42,0,0,1,.76,2.81A4.45,4.45,0,0,1,25.15,35.07Z"/><path class="cls-5" d="M34.63,28.51a4.92,4.92,0,0,1,2.1.49l.22.1.7-1.41-.23-.11A6.29,6.29,0,0,0,34.65,27a5.18,5.18,0,0,0-2.62.64,4.29,4.29,0,0,0-1.72,1.85,6.11,6.11,0,0,0-.59,2.74,5.62,5.62,0,0,0,1.23,3.87,4.47,4.47,0,0,0,3.5,1.38A7.41,7.41,0,0,0,37,37.09l.16-.06V35.53l-.32.09c-2.17.61-3.71.45-4.61-.6a4.16,4.16,0,0,1-.83-2.78,4.08,4.08,0,0,1,.87-2.75A2.91,2.91,0,0,1,34.63,28.51Z"/></g></g></svg>
