<svg xmlns="http://www.w3.org/2000/svg" viewBox="0 0 45.71 62.76"><defs><style>.cls-1{fill:#cff;}.cls-1,.cls-4{stroke:#09b7ae;stroke-width:1px;}.cls-1,.cls-4,.cls-5{stroke-miterlimit:10;}.cls-2{fill:#09b7ae;}.cls-3{fill:#fff;}.cls-4{fill:none;}.cls-5{fill:#cc0909;stroke:#cc0909;stroke-width:0.5px;}</style></defs><title>Ресурс 3</title><g id="Слой_2" data-name="Слой 2"><g id="Слой_1-2" data-name="Слой 1"><path class="cls-1" d="M22.35.5H2.71A2.22,2.22,0,0,0,.5,2.73V60a2.22,2.22,0,0,0,2.2,2.22H43A2.22,2.22,0,0,0,45.21,60V14.32l0-6.34c.27-4.45-2.71-1.77-6.07.77-5.05,3.8-7.34-1.32-9.62-4.58A8.75,8.75,0,0,0,22.35.5Z"/><path class="cls-2" d="M24.23.26,44.31,5.17a11.42,11.42,0,0,0-3.46,2.36c-1.47,1.55-5.53,3.82-7.58,1.76s-4.42-6.94-6.4-7.79A26.21,26.21,0,0,1,24.23.26Z"/><rect class="cls-3" x="0.91" y="20.82" width="43.74" height="22.31"/><line class="cls-4" x1="0.94" y1="20.73" x2="45.21" y2="20.73"/><line class="cls-4" x1="0.94" y1="43.51" x2="45.21" y2="43.51"/><path class="cls-5" d="M10.95,27.77a13.73,13.73,0,0,1,2.29-.18,3.77,3.77,0,0,1,2.59.77,2.51,2.51,0,0,1,.81,1.95,2.75,2.75,0,0,1-.71,2,3.81,3.81,0,0,1-2.82,1,4,4,0,0,1-1-.08V37H10.95Zm1.19,4.49a4,4,0,0,0,1,.1c1.44,0,2.32-.7,2.32-2s-.86-1.82-2.18-1.82a4.91,4.91,0,0,0-1.12.1Z"/><path class="cls-5" d="M19.37,27.78a17,17,0,0,1,2.54-.19,5.26,5.26,0,0,1,3.74,1.16A4.31,4.31,0,0,1,27,32.1a5,5,0,0,1-1.33,3.62,5.66,5.66,0,0,1-4.08,1.34,19,19,0,0,1-2.16-.11ZM20.57,36a7.37,7.37,0,0,0,1.21.07c2.55,0,3.93-1.44,3.93-4,0-2.2-1.22-3.59-3.74-3.59a6.76,6.76,0,0,0-1.4.12Z"/><path class="cls-5" d="M29.64,27.66h5v1H30.83v3.09h3.49v1H30.83V37H29.64Z"/></g></g></svg>