<svg xmlns="http://www.w3.org/2000/svg" width="46" height="63" viewBox="0 0 45.73 62.72"><defs><style>.cls-1{fill:#cff;}.cls-1,.cls-4{stroke:#09b7ae;stroke-miterlimit:10;}.cls-2{fill:#09b7ae;}.cls-3{fill:#fff;}.cls-4{fill:none;}.cls-5{fill:#cc0909;}.cls-6{isolation:isolate;}</style></defs><title>pdf</title><g id="Слой_2" data-name="Слой 2"><g id="Слой_1-2" data-name="Слой 1"><path class="cls-1" d="M22.35.5H2.71A2.22,2.22,0,0,0,.5,2.73h0V60a2.22,2.22,0,0,0,2.2,2.22H43A2.22,2.22,0,0,0,45.21,60V8c.27-4.45-2.71-1.77-6.07.77-5,3.8-7.34-1.32-9.62-4.58A8.75,8.75,0,0,0,22.35.5Z"/><path class="cls-2" d="M24.23.26,44.31,5.17a11.42,11.42,0,0,0-3.46,2.36c-1.47,1.55-5.53,3.82-7.58,1.76s-4.42-6.94-6.4-7.79A26.21,26.21,0,0,1,24.23.26Z"/><rect class="cls-3" x="0.91" y="20.82" width="43.74" height="22.31"/><line class="cls-4" x1="0.94" y1="20.73" x2="45.21" y2="20.73"/><line class="cls-4" x1="0.94" y1="43.51" x2="45.21" y2="43.51"/><path class="cls-5" d="M12,27.14H9.19V37.35h1.63V33.53h.89a4.8,4.8,0,0,0,3-.85,3,3,0,0,0,1.1-2.46C15.85,28.18,14.54,27.14,12,27.14Zm-1.14,1.48h1a3.09,3.09,0,0,1,1.82.42,1.43,1.43,0,0,1,.53,1.23,1.54,1.54,0,0,1-.57,1.35,3.57,3.57,0,0,1-2,.44h-.77Z"/><path class="cls-5" d="M25.2,36a5.16,5.16,0,0,0,1.38-3.85,5,5,0,0,0-1.33-3.68,5,5,0,0,0-3.7-1.33H18.33V37.35h2.94A5.42,5.42,0,0,0,25.2,36Zm-3.85-7.39a3.6,3.6,0,0,1,2.65.89,3.69,3.69,0,0,1,.88,2.69A3.71,3.71,0,0,1,23.95,35a4,4,0,0,1-2.86.92H20V28.62Z"/><polygon class="cls-5" points="30.83 33.2 34.85 33.2 34.85 31.7 30.83 31.7 30.83 28.64 35.11 28.64 35.11 27.14 29.2 27.14 29.2 37.35 30.83 37.35 30.83 33.2"/><text class="cls-6"></text></g></g></svg>
