<?xml version="1.0" encoding="utf-8"?>
<!-- Generator: Adobe Illustrator 19.2.1, SVG Export Plug-In . SVG Version: 6.00 Build 0)  -->
<svg version="1.1" id="Слой_1" xmlns="http://www.w3.org/2000/svg" xmlns:xlink="http://www.w3.org/1999/xlink" x="0px" y="0px"
	 viewBox="0 0 79.3 79.7" style="enable-background:new 0 0 79.3 79.7;" xml:space="preserve">
<style type="text/css">
	.st0{fill:#09B7AE;}
	.st1{fill:#CC0909;}
</style>
<title>7</title>
<g id="Слой_2">
	<g>
		<path class="st0" d="M67.8,30c-0.5,0-1-0.4-1-0.9C65.4,15.3,53.5,4.4,39.7,4.4c-14.3,0-26,10.6-27.2,24.7c0,0.6-0.5,1-1.1,0.9
			c-0.6,0-1-0.5-0.9-1.1C11.8,13.8,24.4,2.4,39.7,2.4c15.1,0,27.6,11.4,29.2,26.5c0.1,0.6-0.4,1.1-0.9,1.1C67.9,30,67.9,30,67.8,30z
			"/>
		<path class="st0" d="M72.4,29c-0.5,0-1-0.4-1-0.9C70.3,17.4,63.9,8,54.4,2.9c-0.5-0.3-0.7-0.9-0.4-1.4c0.3-0.5,0.9-0.7,1.4-0.4
			c10.2,5.4,16.9,15.4,18.1,26.8c0.1,0.6-0.4,1.1-0.9,1.1C72.5,29,72.4,29,72.4,29z"/>
		<path class="st0" d="M6.9,29.2c-0.7-0.1-1.1-0.6-1-1.1C7.1,16.7,13.8,6.7,24,1.3c0.5-0.3,1.1-0.1,1.4,0.4c0.3,0.5,0.1,1.1-0.4,1.4
			c-9.6,5-15.9,14.5-17,25.2C7.9,28.8,7.5,29.2,6.9,29.2z"/>
		<path class="st0" d="M54.9,30c-0.5,0-1-0.4-1-1c-0.4-9.7-2.9-18.5-6.8-23.6c-4.8-1.3-9.9-1.3-14.7,0c-3.9,5.1-6.4,13.9-6.8,23.6
			c0,0.6-0.5,1-1.1,1c-0.6,0-1-0.5-1-1.1c0.4-10.3,3.2-19.6,7.4-25c0.1-0.2,0.3-0.3,0.5-0.4C36.8,2,42.6,2,47.9,3.6
			c0.2,0.1,0.4,0.2,0.5,0.4c4.2,5.4,7,14.8,7.4,25C55.9,29.5,55.5,30,54.9,30C54.9,30,54.9,30,54.9,30z"/>
		<path class="st0" d="M24.5,30c-0.6,0-1-0.5-1-1.1c0.4-10.3,3.2-19.6,7.4-25c0.1-0.2,0.3-0.3,0.5-0.4C36.8,2,42.6,2,47.9,3.6
			c0.2,0.1,0.4,0.2,0.5,0.4c4.2,5.4,6.9,14.2,7.4,24.2c0,0.6-0.4,1-1,1.1c-0.6,0-1-0.4-1.1-1c-0.5-9.3-3-17.8-6.8-22.8
			c-4.8-1.3-9.9-1.3-14.7,0c-3.9,5.1-6.4,13.9-6.8,23.6C25.5,29.6,25,30,24.5,30z"/>
		<path class="st0" d="M39.7,30c-0.6,0-1-0.5-1-1V3.4c0-0.6,0.5-1,1-1c0.6,0,1,0.5,1,1V29C40.7,29.6,40.2,30,39.7,30z"/>
		<path class="st0" d="M11.5,30c-0.7-0.1-1.1-0.5-1-1.1c0.2-1.8,0.5-3.5,1.1-5.5c0.1-0.2,0.2-0.4,0.4-0.5c6-4.7,16.4-7.5,27.8-7.5
			c11.4,0,21.8,2.8,27.8,7.5c0.4,0.3,0.5,1,0.2,1.4c-0.3,0.4-1,0.5-1.4,0.2c-5.6-4.4-15.8-7.1-26.5-7.1c-10.6,0-20.6,2.6-26.3,6.9
			c-0.5,1.7-0.8,3.2-0.9,4.8C12.5,29.6,12,30,11.5,30z"/>
		<path class="st1" d="M39.7,72.2c-0.2,0-0.4-0.1-0.6-0.2L36,70c-2.6-1.7-5.7-2.6-8.8-2.6H5.4c-0.6,0-1-0.5-1-1V32.8
			c0-0.6,0.5-1,1-1h21.8c3.5,0,7,1,9.9,2.9l2.6,1.7l2.6-1.7c3-1.9,6.4-2.9,9.9-2.9h21.8c0.6,0,1,0.5,1,1v33.5c0,0.6-0.5,1-1,1H52.2
			c-3.1,0-6.2,0.9-8.8,2.6l-3.1,2C40.1,72.1,39.9,72.2,39.7,72.2z M6.4,65.3h20.8c3.5,0,7,1,9.9,2.9l2.6,1.7l2.6-1.7
			c3-1.9,6.4-2.9,9.9-2.9h20.8V33.9H52.2c-3.1,0-6.2,0.9-8.8,2.6l-3.1,2c-0.3,0.2-0.8,0.2-1.1,0l-3.1-2c-2.6-1.7-5.7-2.6-8.8-2.6
			H6.4V65.3z"/>
		<path class="st0" d="M39.7,77.3c-0.2,0-0.4-0.1-0.6-0.2l-3.5-2.3c-3-1.9-6.4-3-10-3H1.1c-0.6,0-1-0.5-1-1V54.7c0-0.6,0.5-1,1-1
			c0.6,0,1,0.5,1,1v15.1h23.5c3.9,0,7.8,1.1,11.1,3.3l3,1.9l3-1.9c3.3-2.1,7.1-3.3,11.1-3.3h23.5V54.7c0-0.6,0.5-1,1-1
			c0.6,0,1,0.5,1,1v16.2c0,0.6-0.5,1-1,1H53.7c-3.6,0-7,1-10,3l-3.5,2.3C40.1,77.2,39.9,77.3,39.7,77.3z"/>
		<path class="st1" d="M39.7,72.2c-0.6,0-1-0.5-1-1V53.5c0-0.6,0.5-1,1-1c0.6,0,1,0.5,1,1v17.6C40.7,71.7,40.2,72.2,39.7,72.2z"/>
		<path class="st1" d="M39.7,47.7c-0.6,0-1-0.5-1-1v-9.1c0-0.6,0.5-1,1-1c0.6,0,1,0.5,1,1v9.1C40.7,47.3,40.2,47.7,39.7,47.7z"/>
		<path class="st1" d="M26.9,40.6h-16c-0.6,0-1-0.5-1-1c0-0.6,0.5-1,1-1h16c0.6,0,1,0.5,1,1C27.9,40.2,27.4,40.6,26.9,40.6z"/>
		<path class="st1" d="M26.9,46.9h-16c-0.6,0-1-0.5-1-1s0.5-1,1-1h16c0.6,0,1,0.5,1,1S27.4,46.9,26.9,46.9z"/>
		<path class="st1" d="M26.9,53.1h-16c-0.6,0-1-0.5-1-1c0-0.6,0.5-1,1-1h16c0.6,0,1,0.5,1,1C27.9,52.6,27.4,53.1,26.9,53.1z"/>
		<path class="st1" d="M26.9,59.3h-16c-0.6,0-1-0.5-1-1s0.5-1,1-1h16c0.6,0,1,0.5,1,1S27.4,59.3,26.9,59.3z"/>
		<path class="st1" d="M68.5,40.6h-16c-0.6,0-1-0.5-1-1c0-0.6,0.5-1,1-1h16c0.6,0,1,0.5,1,1C69.5,40.2,69,40.6,68.5,40.6z"/>
		<path class="st1" d="M68.5,46.9h-16c-0.6,0-1-0.5-1-1s0.5-1,1-1h16c0.6,0,1,0.5,1,1S69,46.9,68.5,46.9z"/>
		<path class="st1" d="M68.5,53.1h-16c-0.6,0-1-0.5-1-1c0-0.6,0.5-1,1-1h16c0.6,0,1,0.5,1,1C69.5,52.6,69,53.1,68.5,53.1z"/>
		<path class="st1" d="M68.5,59.3h-16c-0.6,0-1-0.5-1-1s0.5-1,1-1h16c0.6,0,1,0.5,1,1S69,59.3,68.5,59.3z"/>
	</g>
</g>
</svg>
