<svg xmlns="http://www.w3.org/2000/svg" viewBox="0 0 63.72 63.32"><defs><style>.cls-1{fill:#fff;}.cls-2{fill:#007984;opacity:0.17;}.cls-3{fill:none;stroke:#09b7ae;stroke-miterlimit:10;}.cls-4{fill:#9aede8;}.cls-5{fill:#cc0909;stroke:#cc0909;stroke-linecap:round;stroke-linejoin:round;}</style></defs><title>7</title><g id="Слой_2" data-name="Слой 2"><g id="Слой_1-2" data-name="Слой 1"><path class="cls-1" d="M39.83,15.11A24.35,24.35,0,0,0,25.39,61.56C37,54.1,43.13,43.08,42.78,30A48,48,0,0,0,39.83,15.11Z"/><path class="cls-1" d="M58,38.22a24.22,24.22,0,0,0-2.52-10.41c-2.26,1-6.85,1.79-12.65,2.21C43.13,43.08,37,54.1,25.39,61.56A24.31,24.31,0,0,0,56,48.34a25.84,25.84,0,0,0,1.93-9.22C57.91,38.83,57.93,38.53,58,38.22Z"/><path class="cls-2" d="M25.13,61.48a25.53,25.53,0,0,0,8.64,1.39c13.46.25,23.68-11.55,24-25,.33-13.67-8.36-25.23-20.85-27.72C47.7,36.28,43.57,49.74,25.13,61.48Z"/><line class="cls-3" x1="32.9" y1="62.98" x2="34.02" y2="13.91"/><path class="cls-3" d="M31.37,14.28S6.2,32.87,23.95,61"/><path class="cls-3" d="M36.31,14.28s25.71,18,8,46.09"/><path class="cls-3" d="M50.58,21.83A34.69,34.69,0,0,1,16.91,21"/><path class="cls-3" d="M49.7,56.28A33.84,33.84,0,0,0,16.64,56"/><line class="cls-3" x1="58.2" y1="39.03" x2="9.24" y2="38.01"/><circle class="cls-3" cx="33.52" cy="38.45" r="24.37" transform="translate(-5.55 71.24) rotate(-88.92)"/><path class="cls-4" d="M11.55,7.48l.09,18.8c0,1.94,10.14,3.47,22.64,3.43S56.89,28,56.88,26.1L56.79,7.3Z"/><path class="cls-3" d="M11.4,7.58l.09,18.8c0,1.94,10.14,3.47,22.64,3.43s22.62-1.66,22.61-3.6L56.64,7.4Z"/><polygon class="cls-5" points="4.05 10.67 3.07 17.18 4.21 21.43 5.12 17.17 4.05 10.67"/><line class="cls-5" x1="4.05" y1="6.85" x2="4.07" y2="11.73"/><path class="cls-2" d="M56.6,7.75l-21,.08a59.71,59.71,0,0,1,4,8.25,41.4,41.4,0,0,1,3,13.78c5.8-.38,10.39-1.12,12.65-2,1-.4,1.54-.83,1.54-1.28Z"/><path class="cls-4" d="M62.35,8.67,35,14.13A15.08,15.08,0,0,1,29.45,14L1.94,7c-1.54-.39-1.55-1,0-1.26L29.25.29a15.08,15.08,0,0,1,5.58.15l27.51,7C63.88,7.8,63.88,8.37,62.35,8.67Z"/><path class="cls-3" d="M62.08,9.07,34.74,14.52a15.08,15.08,0,0,1-5.58-.15l-27.51-7c-1.54-.39-1.55-1,0-1.26L29,.69a15.08,15.08,0,0,1,5.58.15l27.51,7C63.6,8.2,63.6,8.76,62.08,9.07Z"/></g></g></svg>