<svg xmlns="http://www.w3.org/2000/svg" viewBox="0 0 51.24 55.1"><defs><style>.cls-1{fill:#11bcb8;opacity:0.3;}.cls-2{fill:#9aede8;}.cls-3{fill:#007984;opacity:0.17;}.cls-4{fill:none;}.cls-4,.cls-5{stroke:#09b7ae;stroke-miterlimit:10;}.cls-5{fill:#fff;}</style></defs><title>10</title><g id="Слой_2" data-name="Слой 2"><g id="Слой_1-2" data-name="Слой 1"><ellipse class="cls-1" cx="25.62" cy="52.26" rx="25.62" ry="2.85"/><path class="cls-2" d="M44.34,18.21c0,9.78-12.26,33.45-19.1,33.45-6.37,0-19.1-23.67-19.1-33.45S14.69.5,25.24.5,44.34,8.43,44.34,18.21Z"/><path class="cls-3" d="M44.65,18.39A17.05,17.05,0,0,0,38.83,5.67c-2.51,23-16.16,33.77-22.51,37.58,3.29,5,6.74,8.59,9.23,8.59C32.39,51.84,44.65,28.17,44.65,18.39Z"/><path class="cls-4" d="M44.34,18.21c0,9.78-12.26,33.45-19.1,33.45-6.37,0-19.1-23.67-19.1-33.45S14.69.5,25.24.5,44.34,8.43,44.34,18.21Z"/><circle class="cls-5" cx="25.09" cy="19.77" r="13.92"/></g></g></svg>