<?xml version="1.0" encoding="UTF-8"?>
<!-- Generator: Adobe Illustrator 19.2.1, SVG Export Plug-In . SVG Version: 6.00 Build 0)  -->
<svg version="1.1" id="Слой_1" xmlns="http://www.w3.org/2000/svg" xmlns:xlink="http://www.w3.org/1999/xlink" x="0px" y="0px" viewBox="0 0 63.7 63.3" style="enable-background:new 0 0 63.7 63.3;" xml:space="preserve">
<style type="text/css">
	.st0{fill:#FFFFFF;}
	.st1{opacity:0.17;fill:#007984;enable-background:new    ;}
	.st2{fill:none;stroke:#09B7AE;stroke-miterlimit:10;}
	.st3{fill:none;stroke:#CC0909;stroke-linecap:round;stroke-linejoin:round;}
	.st4{fill:#CC0909;}
	.st5{fill:#09B7AE;}
</style>
<title>7</title>
<g id="Слой_2">
	<g id="Слой_1-2">
		<path class="st0" d="M39.8,15.1c-13-3.4-26.3,4.5-29.7,17.5c-3.1,12.1,3.5,24.7,15.2,29C37,54.1,43.1,43.1,42.8,30    C42.6,24.9,41.6,19.9,39.8,15.1z"/>
		<path class="st0" d="M58,38.2c-0.1-3.6-0.9-7.2-2.5-10.4c-2.3,1-6.8,1.8-12.6,2.2c0.3,13.1-5.8,24.1-17.4,31.5    c12.1,4.4,25.5-1.4,30.6-13.2c1.2-2.9,1.9-6.1,1.9-9.2C57.9,38.8,57.9,38.5,58,38.2z"/>
		<path class="st1" d="M25.1,61.6c2.8,0.9,5.7,1.3,8.6,1.3c13.5,0.2,23.7-10.5,24-22.8c0.3-12.5-8.4-23-20.9-25.3    C47.7,38.6,43.6,50.9,25.1,61.6z"/>
		<line class="st2" x1="32.9" y1="63" x2="34" y2="13.9"/>
		<path class="st2" d="M31.4,14.3c0,0-25.2,18.6-7.4,46.7"/>
		<path class="st2" d="M36.3,14.3c0,0,25.7,18,8,46.1"/>
		<path class="st2" d="M50.6,21.8C40,27.4,27.2,27.1,16.9,21"/>
		<path class="st2" d="M49.7,56.3C39.5,50.4,27,50.3,16.6,56"/>
		<line class="st2" x1="58.2" y1="39" x2="9.2" y2="38"/>
		
			<ellipse transform="matrix(1.884847e-002 -0.9998 0.9998 1.884847e-002 -5.5507 71.2449)" class="st2" cx="33.5" cy="38.5" rx="24.4" ry="24.4"/>
		<path class="st3" d="M38.8,3.4c9.9,1.4,18.5,7.9,21.9,17.6"/>
		<path class="st3" d="M4.9,31.7c0-9.3,4.9-17.5,12.4-22.3"/>
		<circle class="st4" cx="11.1" cy="14.1" r="3"/>
		<ellipse transform="matrix(0.9453 -0.3263 0.3263 0.9453 0.7976 14.6498)" class="st5" cx="44.1" cy="4.9" rx="3" ry="3"/>
	</g>
</g>
</svg>