<svg xmlns="http://www.w3.org/2000/svg" viewBox="0 0 63.77 40.65"><defs><style>.cls-1{fill:#990202;}.cls-2{fill:#9aede8;}.cls-3{fill:#007984;opacity:0.17;}.cls-4{fill:none;}.cls-4,.cls-5{stroke:#09b7ae;stroke-miterlimit:10;}.cls-5{fill:#fff;}.cls-6{fill:#cc0909;}</style></defs><title>8</title><g id="Слой_2" data-name="Слой 2"><g id="Слой_1-2" data-name="Слой 1"><path class="cls-1" d="M2.25,35.47"/><rect class="cls-2" x="9.7" y="-8.92" width="37.48" height="55.89" rx="2.61" ry="2.61" transform="translate(9.42 47.47) rotate(-90)"/><path class="cls-3" d="M.27,36.5a2.21,2.21,0,0,0,1.92,1.15H53.63a2.27,2.27,0,0,0,2.22-2.29V2.46a2.32,2.32,0,0,0-.36-1.23C34.85,29.79,8.19,34.82.27,36.5Z"/><rect class="cls-4" x="9.7" y="-8.7" width="37.48" height="55.89" rx="2.61" ry="2.61" transform="translate(9.2 47.69) rotate(-90)"/><circle class="cls-5" cx="52.26" cy="29.13" r="11.01"/><path class="cls-6" d="M53.28,31.57a3,3,0,0,1-1,1,2.87,2.87,0,0,1-1.38.31,2.68,2.68,0,0,1-2-.72A2.93,2.93,0,0,1,48.15,30a4.87,4.87,0,0,1,1.16-3.31,3.64,3.64,0,0,1,2.86-1.33,2.3,2.3,0,0,1,1.1.25,2.05,2.05,0,0,1,.78.76l.43-.75h1.69l-1.25,5a.23.23,0,0,1,0,0,1.48,1.48,0,0,0,0,.22.47.47,0,0,0,.13.36.55.55,0,0,0,.38.12,2.42,2.42,0,0,0,2-1.17,4.57,4.57,0,0,0,.85-2.75,4,4,0,0,0-1.47-3.19A5.74,5.74,0,0,0,52.91,23a8,8,0,0,0-2.24.3,6.3,6.3,0,0,0-1.88.9,6.16,6.16,0,0,0-2,2.25,6.32,6.32,0,0,0-.69,2.92,5,5,0,0,0,1.66,3.94,6.48,6.48,0,0,0,4.46,1.47,8.64,8.64,0,0,0,2.59-.39,8.1,8.1,0,0,0,2.29-1.13l.79,1.11a9.53,9.53,0,0,1-2.69,1.43,9.31,9.31,0,0,1-3,.47,10,10,0,0,1-2.9-.4A7.37,7.37,0,0,1,47,34.73a6.5,6.5,0,0,1-1.92-2.31,6.73,6.73,0,0,1-.63-3,7.88,7.88,0,0,1,.43-2.62,7.46,7.46,0,0,1,1.28-2.27,7.91,7.91,0,0,1,2.94-2.28,9.24,9.24,0,0,1,3.83-.78,8.88,8.88,0,0,1,2.62.38A6.53,6.53,0,0,1,57.67,23a5.8,5.8,0,0,1,1.66,2,5.6,5.6,0,0,1,.55,2.51A5.86,5.86,0,0,1,59.35,30a5.45,5.45,0,0,1-1.56,2,4.13,4.13,0,0,1-1.26.7,4.36,4.36,0,0,1-1.44.24,2.23,2.23,0,0,1-1.32-.33A1.24,1.24,0,0,1,53.28,31.57Zm.3-3.55a1.53,1.53,0,0,0-.41-.95,1.23,1.23,0,0,0-.9-.33,1.8,1.8,0,0,0-1.49,1,4.22,4.22,0,0,0-.64,2.35,1.69,1.69,0,0,0,.29,1.05,1,1,0,0,0,.8.37A1.74,1.74,0,0,0,52.44,31a2.51,2.51,0,0,0,.72-1.29Z"/><path class="cls-4" d="M55.82,1.88S38.84,19.3,34.2,23.13s-9.54,0-9.54,0L1.17,2"/></g></g></svg>