<svg xmlns="http://www.w3.org/2000/svg" viewBox="0 0 63 53.5"><defs><style>.cls-1{fill:#9aede8;}.cls-2{fill:#007984;opacity:0.17;}.cls-3{fill:none;stroke:#09b7ae;stroke-miterlimit:10;}.cls-4{fill:#09b7ae;}.cls-5{fill:#cc0909;}</style></defs><title>4</title><g id="Слой_2" data-name="Слой 2"><g id="Слой_1-2" data-name="Слой 1"><rect class="cls-1" x="-12.45" y="17.51" width="43.16" height="10.01" rx="2" ry="2" transform="translate(-13.39 31.65) rotate(-90)"/><path class="cls-2" d="M5.87,44.26h6.2A1.91,1.91,0,0,0,14,42.35V34.8c-4,1.17-7.44,2-10,2.53v5A1.91,1.91,0,0,0,5.87,44.26Z"/><line class="cls-3" x1="6.72" y1="6.18" x2="11.53" y2="6.18"/><line class="cls-3" x1="6.72" y1="9.52" x2="11.53" y2="9.52"/><rect class="cls-3" x="-12.45" y="17.51" width="43.16" height="10.01" rx="2" ry="2" transform="translate(-13.39 31.65) rotate(-90)"/><rect class="cls-1" x="18.14" y="17.29" width="43.16" height="10.01" rx="2" ry="2" transform="translate(57.04 -19.83) rotate(83.03)"/><path class="cls-2" d="M39.09,44.24l6.15-.75a1.91,1.91,0,0,0,1.66-2.12L44.44,21.18a94.81,94.81,0,0,1-9.52,4.63l2,16.77A1.91,1.91,0,0,0,39.09,44.24Z"/><rect class="cls-3" x="18.14" y="17.29" width="43.16" height="10.01" rx="2" ry="2" transform="translate(57.04 -19.83) rotate(83.03)"/><line class="cls-3" x1="39.34" y1="39.04" x2="44.12" y2="38.46"/><line class="cls-3" x1="38.94" y1="35.73" x2="43.71" y2="35.14"/><rect class="cls-1" x="33.56" y="17.51" width="43.16" height="10.01" rx="2" ry="2" transform="translate(32.62 77.65) rotate(-90)"/><path class="cls-2" d="M51.88,44.26h6.2A1.91,1.91,0,0,0,60,42.35V4.67A65.26,65.26,0,0,1,50,15.28V42.35A1.91,1.91,0,0,0,51.88,44.26Z"/><line class="cls-3" x1="52.73" y1="5.95" x2="57.54" y2="5.95"/><rect class="cls-3" x="33.56" y="17.51" width="43.16" height="10.01" rx="2" ry="2" transform="translate(32.62 77.65) rotate(-90)"/><line class="cls-3" x1="52.73" y1="9.28" x2="57.54" y2="9.28"/><rect class="cls-1" x="2.29" y="17.51" width="43.16" height="10.01" rx="2" ry="2" transform="translate(46.39 -1.35) rotate(90)"/><path class="cls-2" d="M20.61,44.26h6.2a1.91,1.91,0,0,0,1.91-1.91V29.79c-3.48,1.49-6.86,2.73-10,3.77v8.79A1.91,1.91,0,0,0,20.61,44.26Z"/><line class="cls-3" x1="21.47" y1="39.09" x2="26.27" y2="39.09"/><line class="cls-3" x1="21.47" y1="35.75" x2="26.27" y2="35.75"/><rect class="cls-3" x="2.29" y="17.51" width="43.16" height="10.01" rx="2" ry="2" transform="translate(46.39 -1.35) rotate(90)"/><rect class="cls-4" y="48.1" width="63" height="5.41" rx="1.37" ry="1.37"/><path class="cls-5" d="M21.72,1.44V11.58L23.81,9l2.1,2.55V1.44Z"/></g></g></svg>