<svg xmlns="http://www.w3.org/2000/svg" viewBox="0 0 63.7 52.7"><defs><style>.cls-1{fill:#9aede8;}.cls-2{fill:#007984;opacity:0.17;}.cls-3{fill:none;}.cls-3,.cls-4{stroke:#09b7ae;stroke-miterlimit:10;}.cls-4{fill:#fff;}.cls-5{fill:#cc0909;}</style></defs><title>9</title><g id="Слой_2" data-name="Слой 2"><g id="Слой_1-2" data-name="Слой 1"><path class="cls-1" d="M.69,12.82a5,5,0,0,1,1.25-2.24A10.48,10.48,0,0,1,4.41,8.86C8.4,6.65,9.76,7,12.2,10.78c1.28,2,2.59,3.95,3.87,5.94,1.15,1.78,1,2.73-.66,4.11-.54.45-1.12.87-1.69,1.29-2.42,1.8-2.83,3-1.49,5.76A25.67,25.67,0,0,0,24.69,40.24c2.62,1.22,3.52.9,5.21-1.48l.71-1c1.85-2.61,2.91-2.82,5.56-1.08,2.37,1.56,4.72,3.14,7.12,4.64,1.79,1,2,2.27,1.37,3.79a28.42,28.42,0,0,1-2.74,5.3c-1.25,1.85-3.54,1.95-5.42,2.06-8.23.5-15.18-3-21.44-8C8,38.86,2.93,31.91.87,23a23.75,23.75,0,0,1-.54-3A23.15,23.15,0,0,1,.69,12.82Z"/><path class="cls-2" d="M36.49,52.45c1.89-.11,4.17-.22,5.42-2.06a24.3,24.3,0,0,0,1.65-2.87C-1.59,46.53,7.35,11.28,8,7.5A9.2,9.2,0,0,0,4.41,8.86a10.48,10.48,0,0,0-2.46,1.72A5,5,0,0,0,.69,12.82a23.15,23.15,0,0,0-.37,7.23,23.75,23.75,0,0,0,.54,3C2.93,31.91,8,38.86,15.05,44.44,21.31,49.42,28.27,53,36.49,52.45Z"/><path class="cls-3" d="M1,12.53a5,5,0,0,1,1.25-2.24A10.48,10.48,0,0,1,4.7,8.57c4-2.21,5.35-1.86,7.79,1.92,1.28,2,2.59,3.95,3.87,5.94,1.15,1.78,1,2.73-.66,4.11-.54.45-1.12.87-1.69,1.29-2.42,1.8-2.83,3-1.49,5.76A25.67,25.67,0,0,0,25,39.94c2.62,1.22,3.52.9,5.21-1.48l.71-1c1.85-2.61,2.91-2.82,5.56-1.08,2.37,1.56,4.72,3.14,7.12,4.64,1.79,1,2,2.27,1.37,3.79a28.42,28.42,0,0,1-2.74,5.3C41,51.94,38.68,52,36.79,52.15c-8.23.5-15.18-3-21.44-8-7-5.58-12.12-12.53-14.18-21.44a23.75,23.75,0,0,1-.54-3A23.15,23.15,0,0,1,1,12.53Z"/><path class="cls-4" d="M46,.5C36.55.5,28.87,7.16,28.87,15.37a13.45,13.45,0,0,0,2.94,8.32l-1.88,7,6.37-3.09A19,19,0,0,0,46,30.23c9.48,0,17.17-6.66,17.17-14.87S55.52.5,46,.5Z"/><circle class="cls-5" cx="39.49" cy="16" r="1.89"/><circle class="cls-5" cx="45.62" cy="16" r="1.89"/><circle class="cls-5" cx="51.99" cy="16" r="1.89"/></g></g></svg>