<svg xmlns="http://www.w3.org/2000/svg" viewBox="0 0 63.6 47.98"><defs><style>.cls-1{fill:#9aede8;}.cls-2{fill:none;}.cls-2,.cls-4{stroke:#09b7ae;stroke-miterlimit:10;}.cls-3{fill:#007984;opacity:0.17;}.cls-4{fill:#fff;}.cls-5{fill:#09b7ae;}.cls-6{fill:#cc0909;}</style></defs><title>1</title><g id="Слой_2" data-name="Слой 2"><g id="Слой_1-2" data-name="Слой 1"><path class="cls-1" d="M57,4.5s3.74.69,4.16,7.71,2.36,20.94,2.36,20.94a13.36,13.36,0,0,1-1.39,6.42,45.82,45.82,0,0,1-4,6.59Z"/><path class="cls-2" d="M56.55,4.5s3.74.69,4.16,7.71,2.36,20.94,2.36,20.94a16.22,16.22,0,0,1-1.32,7.46c-1.66,3.44-2.73,4-2.73,4Z"/><rect class="cls-1" x="8.23" y="-4.06" width="43.81" height="59.27" rx="5.5" ry="5.5" transform="translate(55.71 -4.56) rotate(90)"/><rect class="cls-2" x="8.23" y="-4.06" width="43.81" height="59.27" rx="5.5" ry="5.5" transform="translate(55.71 -4.56) rotate(90)"/><path class="cls-3" d="M37,45,4,45a1.24,1.24,0,0,1-1.27-1.19v-6A1.24,1.24,0,0,1,4,36.61H56.23c.7,0,1-.79,1-.14l-.17,3.84C52.38,41.61,41.45,43.92,37,45Z"/><path class="cls-4" d="M35.76,42.88H5.26a2,2,0,0,1-2-2V8.2a2,2,0,0,1,2-2H54.8a2,2,0,0,1,2,2v22l0,5.81c.06,4.19-2.49,1.62-5.59-.7-4.66-3.49-6.77,1.21-8.86,4.19A8.08,8.08,0,0,1,35.76,42.88Z"/><path class="cls-5" d="M37.12,43.28l19.11-4.65a10.6,10.6,0,0,1-3.54-2.2c-1.36-1.42-5.1-3.5-7-1.61s-4.07,6.36-5.9,7.14A21.46,21.46,0,0,0,37.12,43.28Z"/><rect class="cls-5" x="10.56" y="15.75" width="4.76" height="3.97" rx="0.88" ry="0.88"/><rect class="cls-5" x="19.33" y="15.75" width="4.76" height="3.97" rx="0.88" ry="0.88"/><rect class="cls-5" x="28.93" y="15.75" width="4.76" height="3.97" rx="0.88" ry="0.88"/><rect class="cls-5" x="37.7" y="15.75" width="4.76" height="3.97" rx="0.88" ry="0.88"/><rect class="cls-5" x="45.69" y="15.75" width="4.76" height="3.97" rx="0.88" ry="0.88"/><rect class="cls-5" x="10.56" y="22.06" width="4.76" height="3.97" rx="0.88" ry="0.88"/><rect class="cls-5" x="19.33" y="22.06" width="4.76" height="3.97" rx="0.88" ry="0.88"/><rect class="cls-5" x="28.93" y="22.06" width="4.76" height="3.97" rx="0.88" ry="0.88"/><rect class="cls-5" x="37.7" y="22.06" width="4.76" height="3.97" rx="0.88" ry="0.88"/><rect class="cls-5" x="45.69" y="22.06" width="4.76" height="3.97" rx="0.88" ry="0.88"/><rect class="cls-5" x="10.56" y="28.22" width="4.76" height="3.97" rx="0.88" ry="0.88"/><rect class="cls-5" x="19.33" y="28.22" width="4.76" height="3.97" rx="0.88" ry="0.88"/><rect class="cls-5" x="28.93" y="28.22" width="4.76" height="3.97" rx="0.88" ry="0.88"/><rect class="cls-5" x="37.7" y="28.22" width="4.76" height="3.97" rx="0.88" ry="0.88"/><rect class="cls-6" x="10.56" y="34.53" width="4.76" height="3.97" rx="0.88" ry="0.88"/><rect class="cls-6" x="19.33" y="34.53" width="4.76" height="3.97" rx="0.88" ry="0.88"/><rect class="cls-6" x="28.93" y="34.53" width="4.76" height="3.97" rx="0.88" ry="0.88"/><line class="cls-2" x1="3.49" y1="12.26" x2="56.55" y2="12.26"/><rect class="cls-5" x="8.89" y="2.06" width="8.37" height="4.26" rx="1.37" ry="1.37" transform="translate(17.26 -8.89) rotate(90)"/><rect class="cls-5" x="17.69" y="2.06" width="8.37" height="4.26" rx="1.37" ry="1.37" transform="translate(26.06 -17.69) rotate(90)"/><rect class="cls-5" x="26.48" y="2.06" width="8.37" height="4.26" rx="1.37" ry="1.37" transform="translate(34.85 -26.48) rotate(90)"/><rect class="cls-5" x="35.27" y="2.06" width="8.37" height="4.26" rx="1.37" ry="1.37" transform="translate(43.65 -35.27) rotate(90)"/><rect class="cls-5" x="44.07" y="2.06" width="8.37" height="4.26" rx="1.37" ry="1.37" transform="translate(52.44 -44.07) rotate(90)"/></g></g></svg>