<?xml version="1.0" encoding="utf-8"?>
<!-- Generator: Adobe Illustrator 12.0.0, SVG Export Plug-In  -->
<!DOCTYPE svg PUBLIC "-//W3C//DTD SVG 1.1//EN" "http://www.w3.org/Graphics/SVG/1.1/DTD/svg11.dtd" [
	<!ENTITY ns_flows "http://ns.adobe.com/Flows/1.0/">
	<!ENTITY ns_svg "http://www.w3.org/2000/svg">
	<!ENTITY ns_xlink "http://www.w3.org/1999/xlink">
]>
<svg  version="1.1" xmlns="&ns_svg;" xmlns:xlink="&ns_xlink;" xmlns:a="http://ns.adobe.com/AdobeSVGViewerExtensions/3.0/"
	 width="255" height="254" viewBox="-0.813 -0.227 255 254" enable-background="new -0.813 -0.227 255 254" xml:space="preserve">
<defs>
</defs>
<g>
	<g>
		<path fill="#FFFFFF" d="M177.594,88.503c-1.182-3.036-2.59-5.204-4.867-7.48c-2.277-2.276-4.443-3.687-7.48-4.867
			c-2.293-0.891-5.738-1.95-12.082-2.24c-6.859-0.313-8.918-0.379-26.289-0.379c-17.373,0-19.43,0.066-26.291,0.379
			c-6.344,0.29-9.787,1.349-12.08,2.24c-3.037,1.18-5.205,2.591-7.48,4.867c-2.277,2.276-3.688,4.444-4.867,7.48
			c-0.891,2.293-1.951,5.739-2.24,12.082c-0.313,6.86-0.379,8.917-0.379,26.29c0,17.373,0.066,19.429,0.379,26.291
			c0.289,6.342,1.35,9.789,2.24,12.08c1.18,3.037,2.59,5.205,4.867,7.482c2.275,2.275,4.443,3.686,7.48,4.865
			c2.293,0.893,5.736,1.951,12.08,2.24c6.859,0.314,8.918,0.379,26.291,0.379s19.43-0.064,26.289-0.379
			c6.344-0.289,9.789-1.348,12.082-2.24c3.037-1.18,5.203-2.59,7.48-4.865c2.277-2.277,3.686-4.445,4.867-7.482
			c0.891-2.291,1.951-5.738,2.24-12.08c0.313-6.861,0.379-8.918,0.379-26.291c0-17.372-0.066-19.43-0.379-26.29
			C179.545,94.242,178.484,90.796,177.594,88.503z M126.875,160.285c-18.453,0-33.41-14.957-33.41-33.41
			c0-18.452,14.957-33.41,33.41-33.41c18.451,0,33.408,14.958,33.408,33.41C160.283,145.328,145.326,160.285,126.875,160.285z
			 M161.604,99.953c-4.311,0-7.807-3.496-7.807-7.808s3.496-7.808,7.807-7.808c4.313,0,7.809,3.496,7.809,7.808
			S165.916,99.953,161.604,99.953z M126.875,105.188c-11.979,0-21.688,9.709-21.688,21.687c0,11.978,9.709,21.687,21.688,21.687
			s21.688-9.709,21.688-21.687C148.563,114.897,138.854,105.188,126.875,105.188z M126.875,0C56.803,0,0,56.804,0,126.875v0.063
			C0,196.974,56.775,253.75,126.813,253.75h0.123c70.037,0,126.814-56.775,126.814-126.812v-0.063
			C253.75,56.804,196.945,0,126.875,0z M191.545,153.701c-0.316,6.924-1.416,11.654-3.023,15.793
			c-1.664,4.277-3.889,7.906-7.506,11.523c-3.617,3.615-7.244,5.842-11.523,7.504c-4.139,1.607-8.867,2.707-15.793,3.023
			c-6.939,0.316-9.154,0.393-26.824,0.393s-19.885-0.076-26.824-0.393c-6.926-0.316-11.654-1.416-15.793-3.023
			c-4.279-1.662-7.908-3.889-11.525-7.504c-3.615-3.617-5.84-7.246-7.504-11.523c-1.607-4.139-2.707-8.869-3.023-15.793
			c-0.316-6.941-0.393-9.156-0.393-26.826c0-17.669,0.076-19.885,0.393-26.825c0.316-6.924,1.416-11.654,3.023-15.793
			c1.664-4.278,3.889-7.906,7.504-11.523c3.617-3.617,7.246-5.842,11.525-7.504c4.139-1.608,8.867-2.709,15.793-3.024
			c6.939-0.317,9.154-0.392,26.824-0.392s19.885,0.075,26.824,0.392c6.926,0.315,11.654,1.416,15.793,3.024
			c4.279,1.662,7.906,3.887,11.523,7.504s5.842,7.245,7.506,11.523c1.607,4.139,2.707,8.869,3.023,15.793
			c0.316,6.94,0.391,9.156,0.391,26.825C191.936,144.544,191.861,146.759,191.545,153.701z"/>
	</g>
</g>
</svg>
