<?xml version="1.0" encoding="utf-8"?>
<!-- Generator: Adobe Illustrator 12.0.0, SVG Export Plug-In . SVG Version: 6.00 Build 51448)  -->
<!DOCTYPE svg PUBLIC "-//W3C//DTD SVG 1.1//EN" "http://www.w3.org/Graphics/SVG/1.1/DTD/svg11.dtd" [
	<!ENTITY ns_svg "http://www.w3.org/2000/svg">
	<!ENTITY ns_xlink "http://www.w3.org/1999/xlink">
]>
<svg  version="1.1" id="Слой_2__x28_копия_x29_" xmlns="&ns_svg;" xmlns:xlink="&ns_xlink;" width="45.345" height="49.48"
	 viewBox="0 0 45.345 49.48" overflow="visible" enable-background="new 0 0 45.345 49.48" xml:space="preserve">
<g>
	<g>
		<path fill="#d50030" d="M45.288,23.143H37.85V8.181c-12.535,3.622-11.466,14.962-11.466,14.962h-7.482
			c0,0,1.067-11.34-11.464-14.962v14.962H0V0.315C0,0.315,1.366,0,3.543,0c4.567,0,12.686,1.406,19.1,10.152
			C29.056,1.406,37.178,0,41.747,0c2.173,0,3.541,0.315,3.541,0.315V23.143"/>
		<path fill="#ffffff" d="M22.84,49.48l-0.138-0.018l-0.135,0.018V49.46C10.521,48.924,3.777,41.12,1.427,34.604
			c-1.717-4.734-1.324-8.866-1.324-8.866l7.585-0.043c-0.25,9,5.556,13.74,9.887,15.306c2.427,0.873,4.518,0.938,5.053,0.938h0.146
			c0.544,0,2.633-0.064,5.057-0.938c4.334-1.565,10.142-6.306,9.89-15.306l7.586,0.043c0,0,0.388,4.132-1.318,8.866
			c-2.361,6.517-9.106,14.32-21.148,14.856V49.48"/>
	</g>
</g>
</svg>
