<?xml version="1.0" encoding="utf-8"?>
<!-- Generator: Adobe Illustrator 12.0.0, SVG Export Plug-In  -->
<!DOCTYPE svg PUBLIC "-//W3C//DTD SVG 1.1//EN" "http://www.w3.org/Graphics/SVG/1.1/DTD/svg11.dtd" [
	<!ENTITY ns_flows "http://ns.adobe.com/Flows/1.0/">
	<!ENTITY ns_svg "http://www.w3.org/2000/svg">
	<!ENTITY ns_xlink "http://www.w3.org/1999/xlink">
]>
<svg  version="1.1" xmlns="&ns_svg;" xmlns:xlink="&ns_xlink;" xmlns:a="http://ns.adobe.com/AdobeSVGViewerExtensions/3.0/"
	 width="122" height="108" viewBox="0 -0.725 122 108" enable-background="new 0 -0.725 122 108" xml:space="preserve">
<defs>
</defs>
<path fill="#FFFFFF" d="M66.727,37.069c-7.714-6.07-18.893-4.735-24.962,2.982c-6.069,7.71-4.738,18.889,2.979,24.958
	c6.74,5.303,16.115,4.953,22.428-0.36c1.734,2.113,4.145,4.456,6.996,6.704c4.16,3.268,8.291,5.573,11.256,6.465l3.283-4.172
	c-1.563-2.678-4.773-6.149-8.932-9.421c-2.852-2.241-5.688-4.028-8.146-5.219C75.346,51.614,73.486,42.382,66.727,37.069z
	 M65.793,58.951c-4.369,5.557-12.417,6.515-17.971,2.146c-5.555-4.372-6.517-12.416-2.146-17.97
	c4.37-5.557,12.418-6.516,17.973-2.146C69.205,45.352,70.166,53.396,65.793,58.951z"/>
</svg>
