<?xml version="1.0" encoding="utf-8"?>
<!-- Generator: Adobe Illustrator 12.0.0, SVG Export Plug-In  -->
<!DOCTYPE svg PUBLIC "-//W3C//DTD SVG 1.1//EN" "http://www.w3.org/Graphics/SVG/1.1/DTD/svg11.dtd" [
	<!ENTITY ns_flows "http://ns.adobe.com/Flows/1.0/">
	<!ENTITY ns_svg "http://www.w3.org/2000/svg">
	<!ENTITY ns_xlink "http://www.w3.org/1999/xlink">
]>
<svg  version="1.1" xmlns="&ns_svg;" xmlns:xlink="&ns_xlink;" xmlns:a="http://ns.adobe.com/AdobeSVGViewerExtensions/3.0/"
	 width="255" height="254" viewBox="-0.334 -0.207 255 254" enable-background="new -0.334 -0.207 255 254" xml:space="preserve">
<defs>
</defs>
<path fill="#FFFFFF" d="M139.513,136.198c-1.92-0.734-4.56-1.174-7.918-1.258c-3.359-0.086-7.861-0.189-13.506-0.189h-6.664v32.551
	h2.514c8.242,0,13.943-0.477,17.107-0.59c3.159-0.113,6.379-1.295,9.652-2.707c2.88-1.242,4.982-3.061,6.311-5.463
	c1.324-2.4,1.989-5.131,1.989-8.178c0-3.896-0.791-6.953-2.372-9.156C145.046,139.006,142.675,137.327,139.513,136.198z
	 M127.615,113.343c2.173-0.112,4.417-0.942,6.732-2.016c2.541-1.186,4.291-2.824,5.25-4.913c0.961-2.088,1.44-4.521,1.44-7.288
	c0-2.032-0.522-4.13-1.567-6.276c-1.045-2.145-2.668-3.715-4.869-4.677c-2.088-0.903-4.56-1.435-7.409-1.52
	c-2.852-0.084-7.1-0.203-12.745-0.203h-3.022v27.3h4.8C121.645,113.75,125.442,113.457,127.615,113.343z M126.875,0
	C56.803,0,0,56.804,0,126.875v0.063C0,196.973,56.776,253.75,126.813,253.75h0.124c70.036,0,126.813-56.777,126.813-126.813v-0.063
	C253.75,56.804,196.946,0,126.875,0z M178.044,167.579c-2.371,4.742-5.561,8.77-9.57,11.875c-4.74,3.725-9.948,6.584-15.623,8.164
	c-5.674,1.582-12.885,2.783-21.637,2.783h-51.29V63.351h45.362c9.258,0,16.262,0.419,21.035,1.125
	c4.77,0.706,9.23,2.254,13.41,4.512c4.517,2.428,7.869,5.674,10.101,9.739c2.229,4.065,3.302,8.751,3.302,14.058
	c0,6.154-1.621,11.63-4.697,16.429c-3.078,4.799-7.662,8.328-12.912,10.584v0.679c7.35,1.636,14.195,4.983,18.883,10.035
	c4.684,5.053,7.109,11.92,7.109,20.502C181.517,157.28,180.417,162.836,178.044,167.579z"/>
</svg>
